name C:\Users\antoi\Documents\MyRepositories\upper-imu-dc\Results\main_tracking\Case_99\kinematics.mot
datacolumns 43
datarows 6
range 1.70000000 1.80000000
endheader 
time	clav_prot	clav_elev	scapula_abduction	scapula_elevation	scapula_upward_rot	scapula_winging	plane_elv	shoulder_elv	axial_rot	TrapeziusScapula_M/activation	TrapeziusScapula_S/activation	TrapeziusScapula_I/activation	TrapeziusClavicle_S/activation	SerratusAnterior_I/activation	SerratusAnterior_M/activation	SerratusAnterior_S/activation	Rhomboideus_S/activation	Rhomboideus_I/activation	LevatorScapulae/activation	Coracobrachialis/activation	DeltoideusClavicle_A/activation	DeltoideusScapula_P/activation	DeltoideusScapula_M/activation	LatissimusDorsi_S/activation	LatissimusDorsi_M/activation	LatissimusDorsi_I/activation	PectoralisMajorClavicle_S/activation	PectoralisMajorThorax_I/activation	PectoralisMajorThorax_M/activation	TeresMajor/activation	Infraspinatus_I/activation	Infraspinatus_S/activation	PectoralisMinor/activation	TeresMinor/activation	Subscapularis_S/activation	Subscapularis_M/activation	Subscapularis_I/activation	Supraspinatus_P/activation	Supraspinatus_A/activation	TRIlong/activation	BIC_long/activation	BIC_brevis/activation	
          1.70000000	        -21.43366331	         -2.27603845	        -10.89639556	         -2.48496753	         13.27174072	          4.68620742	          6.18228635	         21.44033580	         33.22957314	          0.02812746	          0.03111813	          0.01016421	          0.07773660	          0.04184259	          0.09630589	          0.05899886	          0.07111644	          0.08371933	          0.10911146	          0.04182995	          0.03480692	          0.10169935	          0.08617560	          0.04905540	          0.04943666	          0.05904689	          0.05044761	          0.05543710	          0.05783652	          0.11105345	          0.01000000	          0.02176404	          0.04921398	          0.02155760	          0.10146871	          0.09706028	          0.11777811	          0.06182916	          0.07215140	          0.10200287	          0.05907192	          0.04066443	
          1.72000000	        -21.39128568	         -2.29117136	        -10.80343467	         -2.50074053	         13.29671241	          4.68040182	          6.03760124	         21.37297490	         33.07328684	          0.02777584	          0.03110156	          0.01000000	          0.07806694	          0.04159507	          0.09592768	          0.05905305	          0.07137787	          0.08430949	          0.10938268	          0.04210354	          0.03456716	          0.10249473	          0.08538414	          0.04875005	          0.04912988	          0.05897660	          0.05042516	          0.05504481	          0.05758074	          0.11083437	          0.01000000	          0.02227755	          0.04888650	          0.02254404	          0.10074029	          0.09666900	          0.11720598	          0.06152745	          0.07076179	          0.10286029	          0.05824958	          0.04069262	
          1.74000000	        -21.35735442	         -2.29103602	        -10.72469163	         -2.50753134	         13.32995860	          4.66910361	          5.88420211	         21.26576930	         32.93404129	          0.02736279	          0.03111707	          0.01000000	          0.07839397	          0.04125907	          0.09549917	          0.05907893	          0.07168196	          0.08501850	          0.10977176	          0.04235638	          0.03425839	          0.10342249	          0.08466197	          0.04845985	          0.04885096	          0.05889601	          0.05032900	          0.05464335	          0.05725780	          0.11064378	          0.01000000	          0.02281098	          0.04859579	          0.02350012	          0.09998028	          0.09624917	          0.11658588	          0.06123163	          0.06938087	          0.10375964	          0.05743024	          0.04066851	
          1.76000000	        -21.33350954	         -2.28034650	        -10.66489577	         -2.50758080	         13.36601213	          4.65509477	          5.71533313	         21.12449054	         32.80691540	          0.02710513	          0.03126982	          0.01000000	          0.07862356	          0.04094598	          0.09501693	          0.05909769	          0.07195909	          0.08571770	          0.11029510	          0.04262030	          0.03395413	          0.10445661	          0.08391841	          0.04829653	          0.04872004	          0.05882351	          0.05018970	          0.05440277	          0.05695639	          0.11039566	          0.01000000	          0.02339417	          0.04853824	          0.02445255	          0.09913459	          0.09575462	          0.11582956	          0.06095289	          0.06802865	          0.10462464	          0.05664589	          0.04063154	
          1.78000000	        -21.32105199	         -2.26505496	        -10.62825477	         -2.50387553	         13.39871765	          4.64162955	          5.52408765	         20.95644540	         32.68730480	          0.02703146	          0.03145589	          0.01000000	          0.07869972	          0.04062306	          0.09441794	          0.05909428	          0.07215224	          0.08629033	          0.11088029	          0.04292202	          0.03366272	          0.10543557	          0.08300115	          0.04834548	          0.04882970	          0.05877229	          0.05002550	          0.05434032	          0.05668228	          0.10999523	          0.01000000	          0.02401428	          0.04876877	          0.02542702	          0.09820840	          0.09518449	          0.11491311	          0.06069585	          0.06672845	          0.10535805	          0.05590876	          0.04060771	
          1.80000000	        -21.32049288	         -2.25227332	        -10.61793192	         -2.49994702	         13.42080126	          4.63248302	          5.30492812	         20.77009637	         32.57353237	          0.02717697	          0.03157754	          0.01000000	          0.07853857	          0.04026423	          0.09352929	          0.05908800	          0.07222855	          0.08668611	          0.11136274	          0.04331831	          0.03346925	          0.10626300	          0.08178796	          0.04859478	          0.04916851	          0.05874916	          0.04990042	          0.05454644	          0.05657104	          0.10947122	          0.01000000	          0.02467139	          0.04926784	          0.02642468	          0.09722789	          0.09455099	          0.11386537	          0.06047608	          0.06552575	          0.10596123	          0.05526460	          0.04067512	
